<?xml version="1.0" encoding="utf-8"?>
<!-- Generator: Adobe Illustrator 22.1.0, SVG Export Plug-In . SVG Version: 6.00 Build 0)  -->
<svg version="1.1" id="Layer_1" xmlns="http://www.w3.org/2000/svg" xmlns:xlink="http://www.w3.org/1999/xlink" x="0px" y="0px"
	 viewBox="0 0 32 32" style="enable-background:new 0 0 32 32;" xml:space="preserve">
<style type="text/css">
	.st0{fill:#43A2F7;}
</style>
<title>cart</title>
<path class="st0" d="M12.5,26.9c0,1.4-1.2,2.6-2.6,2.6s-2.6-1.2-2.6-2.6s1.2-2.6,2.6-2.6S12.5,25.4,12.5,26.9z"/>
<path class="st0" d="M29.9,26.9c0,1.4-1.2,2.6-2.6,2.6s-2.6-1.2-2.6-2.6s1.2-2.6,2.6-2.6S29.9,25.4,29.9,26.9z"/>
<path class="st0" d="M29.9,15.6V5.1H9c0-1-0.8-1.7-1.7-1.7H2.1v1.7h3.5l1.3,11.2C6.1,17,5.5,17.9,5.5,19c0,1.9,1.6,3.5,3.5,3.5h20.9
	v-1.7H9c-1,0-1.7-0.8-1.7-1.7l0,0C7.3,19,29.9,15.6,29.9,15.6z"/>
</svg>
