<?xml version="1.0" encoding="utf-8"?>
<!-- Generator: Adobe Illustrator 21.1.0, SVG Export Plug-In . SVG Version: 6.00 Build 0)  -->
<svg version="1.1" id="Layer_1" xmlns="http://www.w3.org/2000/svg" xmlns:xlink="http://www.w3.org/1999/xlink" x="0px" y="0px"
	 viewBox="0 0 32 32" style="enable-background:new 0 0 32 32;" xml:space="preserve">
<style type="text/css">
	.st0{fill:#4C4C4C;}
</style>
<title>search3</title>
<path class="st0" d="M29.6,25.7l-6.9-5.8c-0.7-0.6-1.5-0.9-2.1-0.9c1.6-1.9,2.6-4.4,2.6-7.1c0-6-4.9-10.9-10.9-10.9
	S1.5,5.9,1.5,11.9s4.9,10.9,10.9,10.9c2.7,0,5.2-1,7.1-2.6c0,0.6,0.3,1.4,0.9,2.1l5.8,6.9c1,1.1,2.6,1.2,3.6,0.2
	S30.7,26.7,29.6,25.7z M12.4,19.1c-4,0-7.3-3.2-7.3-7.3s3.2-7.3,7.3-7.3s7.3,3.2,7.3,7.3S16.4,19.1,12.4,19.1z"/>
</svg>
