<svg xmlns="http://www.w3.org/2000/svg" viewBox="0 0 115.46 115.46"><defs><style>.cls-1{fill:#b9862c;}.cls-2{fill:none;}</style></defs><title>fakegg</title><g id="Layer_2" data-name="Layer 2"><g id="Layer_1-2" data-name="Layer 1"><path class="cls-1" d="M81.33,59.09h30.5c0,6.64-1.42,16.23-7.41,23.85C98,91.11,88.19,95.14,77.08,95.14c-21.35,0-37.58-15.68-37.58-37.36s16.77-37.47,37.9-37.47a35.24,35.24,0,0,1,22.76,7.84,41.57,41.57,0,0,1,8.71,9.15l-3.81,3a33.37,33.37,0,0,0-7-8.06,32.65,32.65,0,0,0-20.8-7.62C58.68,24.67,44.52,39.49,44.52,58c0,18.19,13.72,32.78,32.46,32.78,12.42,0,21.35-6.32,25.27-12.31a32.5,32.5,0,0,0,4.79-15H81.33Z"/><path class="cls-1" d="M34.13,63.45H8.42a32.5,32.5,0,0,0,4.79,15c3.92,6,12.85,12.31,25.27,12.31,18.73,0,32.46-14.59,32.46-32.78,0-18.52-14.16-33.33-32.78-33.33a32.66,32.66,0,0,0-20.8,7.62,33.38,33.38,0,0,0-7,8.06l-3.81-3a41.56,41.56,0,0,1,8.71-9.15A35.24,35.24,0,0,1,38,20.32c21.13,0,37.9,15.9,37.9,37.47S59.72,95.14,38.37,95.14c-11.11,0-20.91-4-27.34-12.2C5,75.32,3.63,65.73,3.63,59.09h30.5Z"/><rect class="cls-2" width="115.46" height="115.46"/></g></g></svg>