<svg xmlns="http://www.w3.org/2000/svg" viewBox="0 0 57.02 22.7"><defs><style>.cls-1{fill:#b9862c;}</style></defs><title>gandg</title><g id="Layer_2" data-name="Layer 2"><g id="Layer_1-2" data-name="Layer 1"><path class="cls-1" d="M12.6,11.78h9.77c0,.23-.59.49-.61.74A11.42,11.42,0,0,1,19.55,19a10.13,10.13,0,0,1-8.23,3.67A11,11,0,0,1,0,11.38,11.15,11.15,0,0,1,11.42.1a10.61,10.61,0,0,1,6.86,2.36A12.54,12.54,0,0,1,20.9,5.22l-1.15.92a10,10,0,0,0-2.1-2.43A9.83,9.83,0,0,0,1.51,11.45a9.66,9.66,0,0,0,9.78,9.88,9.09,9.09,0,0,0,7.61-3.71,9.79,9.79,0,0,0,1.44-4.53H12.6Z"/><path class="cls-1" d="M37.29,14.66a23.86,23.86,0,0,1-2.79,3.18l3.28,4.43H35.95l-2.53-3.44a21.92,21.92,0,0,1-3.87,2.79,8.6,8.6,0,0,1-4.07,1.08,5.42,5.42,0,0,1-4-1.51,5.62,5.62,0,0,1-1.71-4.13,6.45,6.45,0,0,1,1.44-4.13A11.82,11.82,0,0,1,24,10.6l2.33-1.51c-1.51-2.33-2.2-3.41-2.2-4.86a4.28,4.28,0,0,1,1.25-3A4,4,0,0,1,28.4,0a4,4,0,0,1,2.79,1.08,3.86,3.86,0,0,1,1.21,3,4.66,4.66,0,0,1-1.61,3.51,20.53,20.53,0,0,1-2.46,1.9l5.35,7.22a32.22,32.22,0,0,0,2.56-2.92ZM27.12,10.2l-2.07,1.34a10.61,10.61,0,0,0-2.79,2.39,4.66,4.66,0,0,0-1,3,4.51,4.51,0,0,0,1.15,3.18,4,4,0,0,0,3.05,1.25,8,8,0,0,0,3.84-1.18,15.65,15.65,0,0,0,3.25-2.53ZM29.94,6.5a3.24,3.24,0,0,0,1-2.4,2.79,2.79,0,0,0-.75-2,2.79,2.79,0,0,0-1.9-.75,2.58,2.58,0,0,0-1.8.72,3.11,3.11,0,0,0-.92,2.2c0,1.48,1.18,2.85,1.94,4.07A15,15,0,0,0,29.94,6.5Z"/><path class="cls-1" d="M47.84,11.78H57A11.76,11.76,0,0,1,54.79,19a10.13,10.13,0,0,1-8.23,3.67A11,11,0,0,1,35.24,11.38,11.15,11.15,0,0,1,46.65.1a10.61,10.61,0,0,1,6.86,2.36,12.54,12.54,0,0,1,2.62,2.75L55,6.13a10.09,10.09,0,0,0-2.1-2.43,9.83,9.83,0,0,0-16.14,7.74,9.66,9.66,0,0,0,9.78,9.88,9.09,9.09,0,0,0,7.61-3.71,9.78,9.78,0,0,0,1.44-4.53H47.84Z"/></g></g></svg>